# xmcd
#
# Track frame offsets:
#	150
#	12778
#	25537
#	40017
#	54509
#	67653
#	83114
#	98269
#	112082
#	126561
#	140980
#	155962
#	170833
#	184061
#	197969
#
# Disc length: 2814 seconds
#
# Revision: 2
# Processed by: cddbd v1.5.2PL0 Copyright (c) Steve Scherf et al.
# Submitted via: EZCDAudioConverter 7.1.5.1
#
DISCID=cd0afc0f
DTITLE=Jason Aldean - Rearview Town
DYEAR=2018
DGENRE=Country
TTITLE0=Dirt To Dust
TTITLE1=Set It Off
TTITLE2=Girl Like You
TTITLE3=You Make It Easy
TTITLE4=Gettin' Warmed Up
TTITLE5=Blacktop Gone
TTITLE6=Drowns The Whiskey (Feat. Miranda Lambert)
TTITLE7=Rearview Town
TTITLE8=Love Me Or Don't
TTITLE9=Like You Were Mine
TTITLE10=Better At Being Who I Am
TTITLE11=I'll Wait For You
TTITLE12=Ride All Night
TTITLE13=Up In Smoke
TTITLE14=High Noon Neon
EXTD=
EXTT0=
EXTT1=
EXTT2=
EXTT3=
EXTT4=
EXTT5=
EXTT6=
EXTT7=
EXTT8=
EXTT9=
EXTT10=
EXTT11=
EXTT12=
EXTT13=
EXTT14=
PLAYORDER=
